STARTFONT 2.1
FONT -Monotype-Times New Roman-Bold-R-Normal--12-120-75-75-P-68-iso8859-5
SIZE 12 75 75
FONTBOUNDINGBOX 15 15 -1 -3

STARTPROPERTIES 24
FOUNDRY "Monotype"
FAMILY_NAME "Times New Roman"
WEIGHT_NAME "Bold"
SLANT "R"
SETWIDTH_NAME "Normal"
ADD_STYLE_NAME ""
PIXEL_SIZE 12
POINT_SIZE 120
RESOLUTION_X 75
RESOLUTION_Y 75
SPACING "P"
AVERAGE_WIDTH 68
CHARSET_REGISTRY "iso8859"
CHARSET_ENCODING "5"
FACE_NAME "Times New Roman Bold ISO Latin Cyrillic"
_DEC_DEVICE_FONTNAMES "PS=timesnewroman-b-latcyrillic"
COPYRIGHT "Copyright (c) 1994 Monotype Typography Ltd."
CAP_HEIGHT 10
X_HEIGHT 7
WEIGHT 10
QUAD_WIDTH 9
DEFAULT_CHAR 160
FONT_DESCENT 4
FONT_ASCENT 12
ENDPROPERTIES

CHARS 191

STARTCHAR space
ENCODING 32
SWIDTH 250 0
DWIDTH 3 0
BBX 0 0 0 0
BITMAP
ENDCHAR

STARTCHAR exclam
ENCODING 33
SWIDTH 271 0
DWIDTH 4 0
BBX 2 9 1 0
BITMAP
C0
C0
C0
C0
40
40
00
C0
C0
ENDCHAR

STARTCHAR quotedbl
ENCODING 34
SWIDTH 552 0
DWIDTH 7 0
BBX 5 4 1 5
BITMAP
D8
D8
D8
48
ENDCHAR

STARTCHAR numbersign
ENCODING 35
SWIDTH 667 0
DWIDTH 9 0
BBX 7 9 1 0
BITMAP
22
22
22
FE
44
44
FE
88
88
ENDCHAR

STARTCHAR dollar
ENCODING 36
SWIDTH 500 0
DWIDTH 7 0
BBX 5 11 1 -1
BITMAP
10
78
D0
D0
D0
70
58
58
58
F0
40
ENDCHAR

STARTCHAR percent
ENCODING 37
SWIDTH 875 0
DWIDTH 11 0
BBX 11 9 0 0
BITMAP
6080
B100
B200
B400
64C0
0960
1160
2160
40C0
ENDCHAR

STARTCHAR ampersand
ENCODING 38
SWIDTH 771 0
DWIDTH 10 0
BBX 9 9 0 0
BITMAP
1800
3400
3400
3800
5B80
D900
CE00
EC00
7780
ENDCHAR

STARTCHAR quoteright
ENCODING 39
SWIDTH 271 0
DWIDTH 4 0
BBX 2 4 1 5
BITMAP
C0
C0
40
80
ENDCHAR

STARTCHAR parenleft
ENCODING 40
SWIDTH 333 0
DWIDTH 4 0
BBX 4 12 0 -3
BITMAP
10
20
60
C0
C0
C0
C0
C0
C0
60
20
10
ENDCHAR

STARTCHAR parenright
ENCODING 41
SWIDTH 333 0
DWIDTH 4 0
BBX 4 12 0 -3
BITMAP
80
40
60
30
30
30
30
30
30
60
40
80
ENDCHAR

STARTCHAR asterisk
ENCODING 42
SWIDTH 500 0
DWIDTH 7 0
BBX 5 5 1 5
BITMAP
20
20
F8
50
50
ENDCHAR

STARTCHAR plus
ENCODING 43
SWIDTH 667 0
DWIDTH 9 0
BBX 7 7 1 0
BITMAP
10
10
10
FE
10
10
10
ENDCHAR

STARTCHAR comma
ENCODING 44
SWIDTH 271 0
DWIDTH 4 0
BBX 2 4 1 -2
BITMAP
C0
C0
40
80
ENDCHAR

STARTCHAR minus
ENCODING 45
SWIDTH 667 0
DWIDTH 9 0
BBX 7 1 1 3
BITMAP
FE
ENDCHAR

STARTCHAR period
ENCODING 46
SWIDTH 271 0
DWIDTH 4 0
BBX 2 2 1 0
BITMAP
C0
C0
ENDCHAR

STARTCHAR slash
ENCODING 47
SWIDTH 281 0
DWIDTH 4 0
BBX 4 9 0 0
BITMAP
30
30
30
60
60
60
C0
C0
C0
ENDCHAR

STARTCHAR zero
ENCODING 48
SWIDTH 500 0
DWIDTH 6 0
BBX 5 9 0 0
BITMAP
70
D8
D8
D8
D8
D8
D8
D8
70
ENDCHAR

STARTCHAR one
ENCODING 49
SWIDTH 500 0
DWIDTH 6 0
BBX 4 9 1 0
BITMAP
20
E0
60
60
60
60
60
60
F0
ENDCHAR

STARTCHAR two
ENCODING 50
SWIDTH 500 0
DWIDTH 6 0
BBX 5 9 0 0
BITMAP
70
B8
18
18
10
20
48
78
F0
ENDCHAR

STARTCHAR three
ENCODING 51
SWIDTH 500 0
DWIDTH 6 0
BBX 5 9 0 0
BITMAP
70
98
18
10
70
18
18
98
70
ENDCHAR

STARTCHAR four
ENCODING 52
SWIDTH 500 0
DWIDTH 6 0
BBX 6 9 0 0
BITMAP
08
18
38
58
58
98
FC
18
18
ENDCHAR

STARTCHAR five
ENCODING 53
SWIDTH 500 0
DWIDTH 6 0
BBX 5 9 0 0
BITMAP
38
78
40
F0
18
18
18
D8
70
ENDCHAR

STARTCHAR six
ENCODING 54
SWIDTH 500 0
DWIDTH 6 0
BBX 5 9 0 0
BITMAP
38
60
C0
F0
D8
D8
D8
D8
70
ENDCHAR

STARTCHAR seven
ENCODING 55
SWIDTH 500 0
DWIDTH 6 0
BBX 5 9 0 0
BITMAP
78
78
88
08
10
10
10
20
20
ENDCHAR

STARTCHAR eight
ENCODING 56
SWIDTH 500 0
DWIDTH 6 0
BBX 5 9 0 0
BITMAP
70
D8
D8
60
30
D8
D8
D8
70
ENDCHAR

STARTCHAR nine
ENCODING 57
SWIDTH 500 0
DWIDTH 6 0
BBX 5 9 0 0
BITMAP
70
D8
D8
D8
D8
78
18
30
E0
ENDCHAR

STARTCHAR colon
ENCODING 58
SWIDTH 271 0
DWIDTH 4 0
BBX 2 6 1 0
BITMAP
C0
C0
00
00
C0
C0
ENDCHAR

STARTCHAR semicolon
ENCODING 59
SWIDTH 271 0
DWIDTH 4 0
BBX 2 8 1 -2
BITMAP
C0
C0
00
00
C0
C0
40
80
ENDCHAR

STARTCHAR less
ENCODING 60
SWIDTH 667 0
DWIDTH 9 0
BBX 7 7 1 0
BITMAP
06
18
60
80
60
18
06
ENDCHAR

STARTCHAR equal
ENCODING 61
SWIDTH 667 0
DWIDTH 9 0
BBX 7 4 1 2
BITMAP
FE
00
00
FE
ENDCHAR

STARTCHAR greater
ENCODING 62
SWIDTH 667 0
DWIDTH 9 0
BBX 7 7 1 0
BITMAP
C0
30
0C
02
0C
30
C0
ENDCHAR

STARTCHAR question
ENCODING 63
SWIDTH 385 0
DWIDTH 5 0
BBX 5 9 0 0
BITMAP
70
D8
D8
10
20
20
00
60
60
ENDCHAR

STARTCHAR at
ENCODING 64
SWIDTH 958 0
DWIDTH 12 0
BBX 12 12 0 -3
BITMAP
0780
1860
2010
4690
8D90
9990
9B10
9B60
4D90
6020
18C0
0700
ENDCHAR

STARTCHAR A
ENCODING 65
SWIDTH 719 0
DWIDTH 9 0
BBX 9 9 0 0
BITMAP
0800
1C00
1C00
2600
2600
3E00
4300
4300
E780
ENDCHAR

STARTCHAR B
ENCODING 66
SWIDTH 667 0
DWIDTH 9 0
BBX 7 9 1 0
BITMAP
FC
66
66
66
7C
66
66
66
FC
ENDCHAR

STARTCHAR C
ENCODING 67
SWIDTH 719 0
DWIDTH 9 0
BBX 7 9 1 0
BITMAP
1A
66
C2
C0
C0
C0
C0
62
1C
ENDCHAR

STARTCHAR D
ENCODING 68
SWIDTH 771 0
DWIDTH 10 0
BBX 8 9 1 0
BITMAP
F8
66
63
63
63
63
63
66
F8
ENDCHAR

STARTCHAR E
ENCODING 69
SWIDTH 667 0
DWIDTH 9 0
BBX 8 9 1 0
BITMAP
FE
62
60
64
7C
64
60
61
FE
ENDCHAR

STARTCHAR F
ENCODING 70
SWIDTH 604 0
DWIDTH 8 0
BBX 7 9 1 0
BITMAP
FE
62
60
64
7C
64
60
60
F0
ENDCHAR

STARTCHAR G
ENCODING 71
SWIDTH 771 0
DWIDTH 10 0
BBX 9 9 1 0
BITMAP
1D00
6300
C100
C000
C000
C780
C300
6300
1E00
ENDCHAR

STARTCHAR H
ENCODING 72
SWIDTH 823 0
DWIDTH 11 0
BBX 9 9 1 0
BITMAP
F780
6300
6300
6300
7F00
6300
6300
6300
F780
ENDCHAR

STARTCHAR I
ENCODING 73
SWIDTH 385 0
DWIDTH 5 0
BBX 4 9 0 0
BITMAP
F0
60
60
60
60
60
60
60
F0
ENDCHAR

STARTCHAR J
ENCODING 74
SWIDTH 552 0
DWIDTH 7 0
BBX 6 9 0 0
BITMAP
3C
18
18
18
18
18
D8
D8
70
ENDCHAR

STARTCHAR K
ENCODING 75
SWIDTH 719 0
DWIDTH 9 0
BBX 9 9 1 0
BITMAP
F700
6200
6400
6800
7800
6C00
6600
6300
F380
ENDCHAR

STARTCHAR L
ENCODING 76
SWIDTH 667 0
DWIDTH 9 0
BBX 8 9 1 0
BITMAP
F8
60
60
60
60
60
61
62
FE
ENDCHAR

STARTCHAR M
ENCODING 77
SWIDTH 990 0
DWIDTH 13 0
BBX 11 9 1 0
BITMAP
C0E0
60C0
71C0
71C0
5AC0
5AC0
4CC0
4CC0
E5E0
ENDCHAR

STARTCHAR N
ENCODING 78
SWIDTH 771 0
DWIDTH 10 0
BBX 8 9 1 0
BITMAP
C7
62
72
72
5A
4E
4E
46
E2
ENDCHAR

STARTCHAR O
ENCODING 79
SWIDTH 823 0
DWIDTH 11 0
BBX 9 9 1 0
BITMAP
1C00
6300
C180
C180
C180
C180
C180
6300
1C00
ENDCHAR

STARTCHAR P
ENCODING 80
SWIDTH 667 0
DWIDTH 9 0
BBX 7 9 1 0
BITMAP
FC
66
66
66
7C
60
60
60
F0
ENDCHAR

STARTCHAR Q
ENCODING 81
SWIDTH 823 0
DWIDTH 11 0
BBX 9 12 1 -3
BITMAP
1C00
6300
C180
C180
C180
C180
C180
6300
1C00
1C00
0C00
0380
ENDCHAR

STARTCHAR R
ENCODING 82
SWIDTH 719 0
DWIDTH 9 0
BBX 8 9 1 0
BITMAP
FC
66
66
66
78
6C
6C
66
F7
ENDCHAR

STARTCHAR S
ENCODING 83
SWIDTH 604 0
DWIDTH 8 0
BBX 6 9 1 0
BITMAP
74
CC
C4
E0
78
1C
8C
CC
B8
ENDCHAR

STARTCHAR T
ENCODING 84
SWIDTH 667 0
DWIDTH 9 0
BBX 8 9 0 0
BITMAP
FF
99
18
18
18
18
18
18
3C
ENDCHAR

STARTCHAR U
ENCODING 85
SWIDTH 771 0
DWIDTH 10 0
BBX 8 9 1 0
BITMAP
F7
62
62
62
62
62
62
62
3C
ENDCHAR

STARTCHAR V
ENCODING 86
SWIDTH 719 0
DWIDTH 9 0
BBX 9 9 0 0
BITMAP
F380
6100
6100
3200
3200
1A00
1C00
0800
0800
ENDCHAR

STARTCHAR W
ENCODING 87
SWIDTH 990 0
DWIDTH 13 0
BBX 13 9 0 0
BITMAP
F738
6610
6610
3320
3320
35A0
18C0
18C0
0840
ENDCHAR

STARTCHAR X
ENCODING 88
SWIDTH 719 0
DWIDTH 9 0
BBX 9 9 0 0
BITMAP
F380
6100
3200
3400
1C00
1600
2600
4300
E780
ENDCHAR

STARTCHAR Y
ENCODING 89
SWIDTH 719 0
DWIDTH 9 0
BBX 10 9 -1 0
BITMAP
F1C0
6080
3100
1A00
0C00
0C00
0C00
0C00
1E00
ENDCHAR

STARTCHAR Z
ENCODING 90
SWIDTH 719 0
DWIDTH 9 0
BBX 9 9 0 0
BITMAP
3F00
2300
4600
0C00
1800
1800
3080
6100
FF00
ENDCHAR

STARTCHAR bracketleft
ENCODING 91
SWIDTH 271 0
DWIDTH 4 0
BBX 3 11 1 -2
BITMAP
E0
C0
C0
C0
C0
C0
C0
C0
C0
C0
E0
ENDCHAR

STARTCHAR backslash
ENCODING 92
SWIDTH 281 0
DWIDTH 4 0
BBX 4 9 0 0
BITMAP
C0
C0
C0
60
60
60
30
30
30
ENDCHAR

STARTCHAR bracketright
ENCODING 93
SWIDTH 271 0
DWIDTH 4 0
BBX 3 11 0 -2
BITMAP
E0
60
60
60
60
60
60
60
60
60
E0
ENDCHAR

STARTCHAR asciicircum
ENCODING 94
SWIDTH 510 0
DWIDTH 8 0
BBX 5 5 1 4
BITMAP
20
20
50
88
88
ENDCHAR

STARTCHAR underscore
ENCODING 95
SWIDTH 500 0
DWIDTH 7 0
BBX 7 1 0 -2
BITMAP
FE
ENDCHAR

STARTCHAR quoteleft
ENCODING 96
SWIDTH 271 0
DWIDTH 4 0
BBX 2 4 1 5
BITMAP
40
80
C0
C0
ENDCHAR

STARTCHAR a
ENCODING 97
SWIDTH 500 0
DWIDTH 6 0
BBX 6 6 0 0
BITMAP
70
D8
18
78
D8
6C
ENDCHAR

STARTCHAR b
ENCODING 98
SWIDTH 500 0
DWIDTH 6 0
BBX 6 9 -1 0
BITMAP
E0
60
60
78
6C
6C
6C
6C
58
ENDCHAR

STARTCHAR c
ENCODING 99
SWIDTH 437 0
DWIDTH 6 0
BBX 5 6 0 0
BITMAP
70
D8
C0
C0
C8
70
ENDCHAR

STARTCHAR d
ENCODING 100
SWIDTH 500 0
DWIDTH 6 0
BBX 6 9 0 0
BITMAP
38
18
18
78
D8
D8
D8
D8
6C
ENDCHAR

STARTCHAR e
ENCODING 101
SWIDTH 437 0
DWIDTH 6 0
BBX 5 6 0 0
BITMAP
70
D8
F8
C0
C8
70
ENDCHAR

STARTCHAR f
ENCODING 102
SWIDTH 333 0
DWIDTH 4 0
BBX 5 9 0 0
BITMAP
30
68
60
F0
60
60
60
60
F0
ENDCHAR

STARTCHAR g
ENCODING 103
SWIDTH 500 0
DWIDTH 6 0
BBX 6 9 0 -3
BITMAP
74
D8
D8
D8
70
C0
78
8C
70
ENDCHAR

STARTCHAR h
ENCODING 104
SWIDTH 500 0
DWIDTH 6 0
BBX 7 9 -1 0
BITMAP
E0
60
60
78
6C
6C
6C
6C
EE
ENDCHAR

STARTCHAR i
ENCODING 105
SWIDTH 271 0
DWIDTH 4 0
BBX 4 9 0 0
BITMAP
60
60
00
E0
60
60
60
60
F0
ENDCHAR

STARTCHAR j
ENCODING 106
SWIDTH 271 0
DWIDTH 4 0
BBX 4 12 -1 -3
BITMAP
30
30
00
70
30
30
30
30
30
30
B0
E0
ENDCHAR

STARTCHAR k
ENCODING 107
SWIDTH 552 0
DWIDTH 7 0
BBX 7 9 -1 0
BITMAP
E0
60
60
6E
64
78
6C
6C
E6
ENDCHAR

STARTCHAR l
ENCODING 108
SWIDTH 271 0
DWIDTH 4 0
BBX 4 9 0 0
BITMAP
E0
60
60
60
60
60
60
60
F0
ENDCHAR

STARTCHAR m
ENCODING 109
SWIDTH 771 0
DWIDTH 10 0
BBX 10 6 -1 0
BITMAP
DB00
6D80
6D80
6D80
6D80
EDC0
ENDCHAR

STARTCHAR n
ENCODING 110
SWIDTH 500 0
DWIDTH 6 0
BBX 7 6 -1 0
BITMAP
D8
6C
6C
6C
6C
EE
ENDCHAR

STARTCHAR o
ENCODING 111
SWIDTH 500 0
DWIDTH 6 0
BBX 5 6 0 0
BITMAP
70
D8
D8
D8
D8
70
ENDCHAR

STARTCHAR p
ENCODING 112
SWIDTH 500 0
DWIDTH 6 0
BBX 6 8 -1 -2
BITMAP
D8
6C
6C
6C
6C
78
60
F0
ENDCHAR

STARTCHAR q
ENCODING 113
SWIDTH 505 0
DWIDTH 6 0
BBX 6 8 0 -2
BITMAP
68
D8
D8
D8
D8
78
18
3C
ENDCHAR

STARTCHAR r
ENCODING 114
SWIDTH 385 0
DWIDTH 5 0
BBX 5 6 0 0
BITMAP
D8
68
60
60
60
F0
ENDCHAR

STARTCHAR s
ENCODING 115
SWIDTH 385 0
DWIDTH 5 0
BBX 4 6 0 0
BITMAP
70
C0
E0
70
30
E0
ENDCHAR

STARTCHAR t
ENCODING 116
SWIDTH 333 0
DWIDTH 4 0
BBX 4 8 -1 0
BITMAP
20
60
F0
60
60
60
60
30
ENDCHAR

STARTCHAR u
ENCODING 117
SWIDTH 500 0
DWIDTH 6 0
BBX 7 6 -1 0
BITMAP
EC
6C
6C
6C
6C
36
ENDCHAR

STARTCHAR v
ENCODING 118
SWIDTH 437 0
DWIDTH 6 0
BBX 7 6 -1 0
BITMAP
F6
64
64
28
38
10
ENDCHAR

STARTCHAR w
ENCODING 119
SWIDTH 667 0
DWIDTH 9 0
BBX 10 6 -1 0
BITMAP
EDC0
6C80
6D00
6D00
3600
2400
ENDCHAR

STARTCHAR x
ENCODING 120
SWIDTH 552 0
DWIDTH 7 0
BBX 6 6 0 0
BITMAP
EC
68
30
30
58
DC
ENDCHAR

STARTCHAR y
ENCODING 121
SWIDTH 500 0
DWIDTH 6 0
BBX 7 9 -1 -3
BITMAP
F6
64
64
34
38
18
10
50
60
ENDCHAR

STARTCHAR z
ENCODING 122
SWIDTH 437 0
DWIDTH 6 0
BBX 5 6 0 0
BITMAP
F8
98
30
60
C8
F8
ENDCHAR

STARTCHAR braceleft
ENCODING 123
SWIDTH 396 0
DWIDTH 5 0
BBX 4 11 0 -2
BITMAP
30
60
60
60
60
C0
60
60
60
60
30
ENDCHAR

STARTCHAR bar
ENCODING 124
SWIDTH 219 0
DWIDTH 3 0
BBX 1 11 1 -2
BITMAP
80
80
80
80
80
80
80
80
80
80
80
ENDCHAR

STARTCHAR braceright
ENCODING 125
SWIDTH 396 0
DWIDTH 5 0
BBX 4 11 1 -2
BITMAP
C0
60
60
60
60
30
60
60
60
60
C0
ENDCHAR

STARTCHAR asciitilde
ENCODING 126
SWIDTH 667 0
DWIDTH 7 0
BBX 7 2 0 3
BITMAP
72
9C
ENDCHAR

STARTCHAR space
ENCODING 160
SWIDTH 250 0
DWIDTH 4 0
BBX 0 0 0 0
BITMAP
ENDCHAR

STARTCHAR afii10023
ENCODING 161
SWIDTH 667 0
DWIDTH 9 0
BBX 8 12 1 0
BITMAP
6C
6C
00
FE
62
60
64
7C
64
60
61
FE
ENDCHAR

STARTCHAR afii10051
ENCODING 162
SWIDTH 823 0
DWIDTH 11 0
BBX 10 9 0 0
BITMAP
FF00
9900
1800
1B80
1CC0
18C0
18C0
18C0
3D80
ENDCHAR

STARTCHAR afii10052
ENCODING 163
SWIDTH 646 0
DWIDTH 8 0
BBX 7 12 1 0
BITMAP
08
10
00
FE
62
60
60
60
60
60
60
F0
ENDCHAR

STARTCHAR afii10053
ENCODING 164
SWIDTH 698 0
DWIDTH 9 0
BBX 7 9 1 0
BITMAP
1A
66
C2
C0
F8
C0
C0
62
1C
ENDCHAR

STARTCHAR afii10054
ENCODING 165
SWIDTH 604 0
DWIDTH 8 0
BBX 6 9 1 0
BITMAP
74
CC
C4
E0
78
1C
8C
CC
B8
ENDCHAR

STARTCHAR afii10055
ENCODING 166
SWIDTH 385 0
DWIDTH 5 0
BBX 4 9 0 0
BITMAP
F0
60
60
60
60
60
60
60
F0
ENDCHAR

STARTCHAR afii10056
ENCODING 167
SWIDTH 385 0
DWIDTH 5 0
BBX 5 12 0 0
BITMAP
D8
D8
00
F0
60
60
60
60
60
60
60
F0
ENDCHAR

STARTCHAR afii10057
ENCODING 168
SWIDTH 552 0
DWIDTH 7 0
BBX 6 9 0 0
BITMAP
3C
18
18
18
18
18
D8
D8
70
ENDCHAR

STARTCHAR afii10058
ENCODING 169
SWIDTH 979 0
DWIDTH 13 0
BBX 12 9 0 0
BITMAP
3F80
1300
1300
1300
13E0
1330
1330
A330
C7E0
ENDCHAR

STARTCHAR afii10059
ENCODING 170
SWIDTH 1000 0
DWIDTH 13 0
BBX 11 9 1 0
BITMAP
F780
6300
6300
6300
7FC0
6360
6360
6360
F7C0
ENDCHAR

STARTCHAR afii10060
ENCODING 171
SWIDTH 823 0
DWIDTH 11 0
BBX 11 9 0 0
BITMAP
FF00
9900
1800
1B80
1CC0
18C0
18C0
18C0
3DE0
ENDCHAR

STARTCHAR afii10061
ENCODING 172
SWIDTH 756 0
DWIDTH 10 0
BBX 8 12 1 0
BITMAP
04
08
00
F3
65
64
68
78
6C
66
66
F3
ENDCHAR

STARTCHAR hyphen
ENCODING 173
SWIDTH 333 0
DWIDTH 4 0
BBX 4 1 0 3
BITMAP
F0
ENDCHAR

STARTCHAR afii10062
ENCODING 174
SWIDTH 760 0
DWIDTH 10 0
BBX 10 12 0 0
BITMAP
1100
0E00
0000
F1C0
6080
3100
3100
1A00
0E00
0400
2800
3000
ENDCHAR

STARTCHAR afii10145
ENCODING 175
SWIDTH 833 0
DWIDTH 11 0
BBX 9 11 1 -2
BITMAP
F780
6300
6300
6300
6300
6300
6300
6300
FF80
0800
0800
ENDCHAR

STARTCHAR afii10017
ENCODING 176
SWIDTH 719 0
DWIDTH 9 0
BBX 9 9 0 0
BITMAP
0800
1C00
1C00
2600
2600
3E00
4300
4300
E780
ENDCHAR

STARTCHAR afii10018
ENCODING 177
SWIDTH 668 0
DWIDTH 9 0
BBX 7 9 1 0
BITMAP
FE
62
60
60
7C
66
66
66
FC
ENDCHAR

STARTCHAR afii10019
ENCODING 178
SWIDTH 677 0
DWIDTH 9 0
BBX 7 9 1 0
BITMAP
FC
66
66
66
7C
66
66
66
FC
ENDCHAR

STARTCHAR afii10020
ENCODING 179
SWIDTH 646 0
DWIDTH 8 0
BBX 7 9 1 0
BITMAP
FE
62
60
60
60
60
60
60
F8
ENDCHAR

STARTCHAR afii10021
ENCODING 180
SWIDTH 719 0
DWIDTH 9 0
BBX 8 11 0 -2
BITMAP
7F
26
26
26
26
26
46
46
FF
81
81
ENDCHAR

STARTCHAR afii10022
ENCODING 181
SWIDTH 667 0
DWIDTH 9 0
BBX 8 9 1 0
BITMAP
FE
62
60
64
7C
64
60
61
FE
ENDCHAR

STARTCHAR afii10024
ENCODING 182
SWIDTH 980 0
DWIDTH 13 0
BBX 12 9 0 0
BITMAP
CF30
A650
2640
1680
1F80
36C0
6660
6660
CF30
ENDCHAR

STARTCHAR afii10025
ENCODING 183
SWIDTH 546 0
DWIDTH 7 0
BBX 6 9 0 0
BITMAP
58
6C
4C
0C
38
0C
0C
8C
70
ENDCHAR

STARTCHAR afii10026
ENCODING 184
SWIDTH 833 0
DWIDTH 11 0
BBX 9 9 1 0
BITMAP
F780
6300
6700
6700
6B00
7300
7300
6300
F780
ENDCHAR

STARTCHAR afii10027
ENCODING 185
SWIDTH 833 0
DWIDTH 11 0
BBX 9 12 1 0
BITMAP
2200
1C00
0000
F780
6300
6700
6700
6B00
7300
7300
6300
F780
ENDCHAR

STARTCHAR afii10028
ENCODING 186
SWIDTH 756 0
DWIDTH 10 0
BBX 8 9 1 0
BITMAP
F3
65
64
68
78
6C
66
66
F3
ENDCHAR

STARTCHAR afii10029
ENCODING 187
SWIDTH 720 0
DWIDTH 9 0
BBX 8 9 0 0
BITMAP
7F
26
26
26
26
26
26
A6
CF
ENDCHAR

STARTCHAR afii10030
ENCODING 188
SWIDTH 990 0
DWIDTH 13 0
BBX 11 9 1 0
BITMAP
C0E0
60C0
71C0
71C0
5AC0
5AC0
4CC0
4CC0
E5E0
ENDCHAR

STARTCHAR afii10031
ENCODING 189
SWIDTH 823 0
DWIDTH 11 0
BBX 9 9 1 0
BITMAP
F780
6300
6300
6300
7F00
6300
6300
6300
F780
ENDCHAR

STARTCHAR afii10032
ENCODING 190
SWIDTH 823 0
DWIDTH 11 0
BBX 9 9 1 0
BITMAP
1C00
6300
C180
C180
C180
C180
C180
6300
1C00
ENDCHAR

STARTCHAR afii10033
ENCODING 191
SWIDTH 833 0
DWIDTH 11 0
BBX 9 9 1 0
BITMAP
FF80
6300
6300
6300
6300
6300
6300
6300
F780
ENDCHAR

STARTCHAR afii10034
ENCODING 192
SWIDTH 667 0
DWIDTH 9 0
BBX 7 9 1 0
BITMAP
FC
66
66
66
7C
60
60
60
F0
ENDCHAR

STARTCHAR afii10035
ENCODING 193
SWIDTH 719 0
DWIDTH 9 0
BBX 7 9 1 0
BITMAP
1A
66
C2
C0
C0
C0
C0
62
1C
ENDCHAR

STARTCHAR afii10036
ENCODING 194
SWIDTH 667 0
DWIDTH 9 0
BBX 8 9 0 0
BITMAP
FF
99
18
18
18
18
18
18
3C
ENDCHAR

STARTCHAR afii10037
ENCODING 195
SWIDTH 760 0
DWIDTH 10 0
BBX 10 9 0 0
BITMAP
F1C0
6080
3100
3100
1A00
0E00
0400
2800
3000
ENDCHAR

STARTCHAR afii10038
ENCODING 196
SWIDTH 878 0
DWIDTH 11 0
BBX 10 9 0 0
BITMAP
1E00
0C00
7F80
CCC0
CCC0
CCC0
7F80
0C00
1E00
ENDCHAR

STARTCHAR afii10039
ENCODING 197
SWIDTH 719 0
DWIDTH 9 0
BBX 9 9 0 0
BITMAP
F380
6100
3200
3400
1C00
1600
2600
4300
E780
ENDCHAR

STARTCHAR afii10040
ENCODING 198
SWIDTH 833 0
DWIDTH 11 0
BBX 9 11 1 -2
BITMAP
F780
6300
6300
6300
6300
6300
6300
6300
FF80
0080
0080
ENDCHAR

STARTCHAR afii10041
ENCODING 199
SWIDTH 771 0
DWIDTH 10 0
BBX 9 9 0 0
BITMAP
F780
6300
6300
6300
6700
3B00
0300
0300
0780
ENDCHAR

STARTCHAR afii10042
ENCODING 200
SWIDTH 1096 0
DWIDTH 14 0
BBX 12 9 1 0
BITMAP
F6F0
6660
6660
6660
6660
6660
6660
6660
FFF0
ENDCHAR

STARTCHAR afii10043
ENCODING 201
SWIDTH 1096 0
DWIDTH 14 0
BBX 12 11 1 -2
BITMAP
F670
6660
6660
6660
6660
6660
6660
6660
FFF0
0010
0010
ENDCHAR

STARTCHAR afii10044
ENCODING 202
SWIDTH 771 0
DWIDTH 10 0
BBX 9 9 0 0
BITMAP
FC00
9800
1800
1800
1F00
1980
1980
1980
3F00
ENDCHAR

STARTCHAR afii10045
ENCODING 203
SWIDTH 1000 0
DWIDTH 13 0
BBX 11 9 1 0
BITMAP
F9E0
60C0
60C0
60C0
7CC0
66C0
66C0
66C0
FDE0
ENDCHAR

STARTCHAR afii10046
ENCODING 204
SWIDTH 667 0
DWIDTH 9 0
BBX 7 9 1 0
BITMAP
F8
60
60
60
7C
66
66
66
FC
ENDCHAR

STARTCHAR afii10047
ENCODING 205
SWIDTH 698 0
DWIDTH 9 0
BBX 7 9 1 0
BITMAP
B0
CC
86
06
3E
06
06
8C
70
ENDCHAR

STARTCHAR afii10048
ENCODING 206
SWIDTH 1152 0
DWIDTH 15 0
BBX 13 9 1 0
BITMAP
F1C0
6630
6C18
6C18
7C18
6C18
6C18
6630
F1C0
ENDCHAR

STARTCHAR afii10049
ENCODING 207
SWIDTH 719 0
DWIDTH 9 0
BBX 8 9 0 0
BITMAP
3F
66
66
66
1E
36
36
66
EF
ENDCHAR

STARTCHAR afii10065
ENCODING 208
SWIDTH 500 0
DWIDTH 6 0
BBX 6 6 0 0
BITMAP
70
D8
18
78
D8
6C
ENDCHAR

STARTCHAR afii10066
ENCODING 209
SWIDTH 500 0
DWIDTH 7 0
BBX 6 9 0 0
BITMAP
1C
38
40
F8
CC
CC
CC
CC
78
ENDCHAR

STARTCHAR afii10067
ENCODING 210
SWIDTH 507 0
DWIDTH 7 0
BBX 7 6 -1 0
BITMAP
FC
66
7C
66
66
FC
ENDCHAR

STARTCHAR afii10068
ENCODING 211
SWIDTH 423 0
DWIDTH 6 0
BBX 6 6 -1 0
BITMAP
FC
64
60
60
60
F0
ENDCHAR

STARTCHAR afii10069
ENCODING 212
SWIDTH 515 0
DWIDTH 7 0
BBX 7 7 0 -1
BITMAP
7E
2C
2C
2C
4C
FE
82
ENDCHAR

STARTCHAR afii10070
ENCODING 213
SWIDTH 437 0
DWIDTH 6 0
BBX 5 6 0 0
BITMAP
70
D8
F8
C0
C8
70
ENDCHAR

STARTCHAR afii10072
ENCODING 214
SWIDTH 719 0
DWIDTH 9 0
BBX 8 6 0 0
BITMAP
99
DB
3C
5A
DB
DB
ENDCHAR

STARTCHAR afii10073
ENCODING 215
SWIDTH 417 0
DWIDTH 5 0
BBX 4 6 0 0
BITMAP
60
B0
60
30
B0
60
ENDCHAR

STARTCHAR afii10074
ENCODING 216
SWIDTH 545 0
DWIDTH 7 0
BBX 8 6 -1 0
BITMAP
E7
6E
6E
76
76
E7
ENDCHAR

STARTCHAR afii10075
ENCODING 217
SWIDTH 545 0
DWIDTH 7 0
BBX 8 9 -1 0
BITMAP
24
18
00
E7
6E
6E
76
76
E7
ENDCHAR

STARTCHAR afii10076
ENCODING 218
SWIDTH 560 0
DWIDTH 7 0
BBX 7 6 -1 0
BITMAP
E6
6A
70
6C
6C
E6
ENDCHAR

STARTCHAR afii10077
ENCODING 219
SWIDTH 542 0
DWIDTH 7 0
BBX 7 6 0 0
BITMAP
7E
2C
2C
2C
AC
CE
ENDCHAR

STARTCHAR afii10078
ENCODING 220
SWIDTH 647 0
DWIDTH 8 0
BBX 9 6 -1 0
BITMAP
E380
6300
7700
5B00
5B00
CB80
ENDCHAR

STARTCHAR afii10079
ENCODING 221
SWIDTH 543 0
DWIDTH 7 0
BBX 8 6 -1 0
BITMAP
F7
66
7E
66
66
F7
ENDCHAR

STARTCHAR afii10080
ENCODING 222
SWIDTH 500 0
DWIDTH 6 0
BBX 5 6 0 0
BITMAP
70
D8
D8
D8
D8
70
ENDCHAR

STARTCHAR afii10081
ENCODING 223
SWIDTH 549 0
DWIDTH 7 0
BBX 8 6 -1 0
BITMAP
FF
66
66
66
66
F7
ENDCHAR

STARTCHAR afii10082
ENCODING 224
SWIDTH 500 0
DWIDTH 6 0
BBX 6 9 -1 -3
BITMAP
D8
6C
6C
6C
6C
78
60
60
F0
ENDCHAR

STARTCHAR afii10083
ENCODING 225
SWIDTH 437 0
DWIDTH 6 0
BBX 5 6 0 0
BITMAP
70
D8
C0
C0
C8
70
ENDCHAR

STARTCHAR afii10084
ENCODING 226
SWIDTH 490 0
DWIDTH 6 0
BBX 6 6 0 0
BITMAP
FC
B4
30
30
30
78
ENDCHAR

STARTCHAR afii10085
ENCODING 227
SWIDTH 500 0
DWIDTH 6 0
BBX 7 9 -1 -3
BITMAP
F6
64
64
34
38
18
10
50
60
ENDCHAR

STARTCHAR afii10086
ENCODING 228
SWIDTH 667 0
DWIDTH 9 0
BBX 8 11 0 -2
BITMAP
38
18
18
7E
DB
DB
DB
DB
7E
18
3C
ENDCHAR

STARTCHAR afii10087
ENCODING 229
SWIDTH 552 0
DWIDTH 7 0
BBX 6 6 0 0
BITMAP
EC
68
30
30
58
DC
ENDCHAR

STARTCHAR afii10088
ENCODING 230
SWIDTH 552 0
DWIDTH 7 0
BBX 8 7 -1 -1
BITMAP
F7
66
66
66
66
FF
01
ENDCHAR

STARTCHAR afii10089
ENCODING 231
SWIDTH 515 0
DWIDTH 7 0
BBX 7 6 0 0
BITMAP
EE
6C
7C
0C
0C
0E
ENDCHAR

STARTCHAR afii10090
ENCODING 232
SWIDTH 814 0
DWIDTH 11 0
BBX 12 6 -1 0
BITMAP
F6F0
6660
6660
6660
6660
FFF0
ENDCHAR

STARTCHAR afii10091
ENCODING 233
SWIDTH 816 0
DWIDTH 11 0
BBX 12 7 -1 -1
BITMAP
F6F0
6660
6660
6660
6660
FFF0
0010
ENDCHAR

STARTCHAR afii10092
ENCODING 234
SWIDTH 552 0
DWIDTH 7 0
BBX 7 6 -1 0
BITMAP
F8
B0
3C
36
36
7C
ENDCHAR

STARTCHAR afii10093
ENCODING 235
SWIDTH 734 0
DWIDTH 10 0
BBX 11 6 -1 0
BITMAP
E1E0
60C0
78C0
6CC0
6CC0
F9E0
ENDCHAR

STARTCHAR afii10094
ENCODING 236
SWIDTH 501 0
DWIDTH 7 0
BBX 6 6 0 0
BITMAP
F0
60
78
6C
6C
F8
ENDCHAR

STARTCHAR afii10095
ENCODING 237
SWIDTH 437 0
DWIDTH 6 0
BBX 5 6 0 0
BITMAP
F0
98
38
18
98
70
ENDCHAR

STARTCHAR afii10096
ENCODING 238
SWIDTH 771 0
DWIDTH 10 0
BBX 10 6 -1 0
BITMAP
F380
66C0
7EC0
66C0
66C0
F380
ENDCHAR

STARTCHAR afii10097
ENCODING 239
SWIDTH 499 0
DWIDTH 6 0
BBX 6 6 0 0
BITMAP
78
DC
D8
78
D8
DC
ENDCHAR

STARTCHAR afii61352
ENCODING 240
SWIDTH 1052 0
DWIDTH 14 0
BBX 13 9 0 0
BITMAP
70C0
3940
2D30
2D48
2748
2748
2330
A100
C178
ENDCHAR

STARTCHAR afii10071
ENCODING 241
SWIDTH 437 0
DWIDTH 6 0
BBX 5 9 0 0
BITMAP
D8
D8
00
70
D8
F8
C0
C8
70
ENDCHAR

STARTCHAR afii10099
ENCODING 242
SWIDTH 494 0
DWIDTH 6 0
BBX 6 11 -1 -2
BITMAP
E0
78
60
78
6C
6C
6C
6C
EC
0C
18
ENDCHAR

STARTCHAR afii10100
ENCODING 243
SWIDTH 422 0
DWIDTH 5 0
BBX 6 9 -1 0
BITMAP
08
10
00
FC
64
60
60
60
F0
ENDCHAR

STARTCHAR afii10101
ENCODING 244
SWIDTH 437 0
DWIDTH 6 0
BBX 5 6 0 0
BITMAP
78
C8
E0
C0
C8
70
ENDCHAR

STARTCHAR afii10102
ENCODING 245
SWIDTH 385 0
DWIDTH 5 0
BBX 4 6 0 0
BITMAP
70
C0
E0
70
30
E0
ENDCHAR

STARTCHAR afii10103
ENCODING 246
SWIDTH 271 0
DWIDTH 4 0
BBX 4 9 0 0
BITMAP
60
60
00
E0
60
60
60
60
F0
ENDCHAR

STARTCHAR afii10104
ENCODING 247
SWIDTH 271 0
DWIDTH 4 0
BBX 5 9 -1 0
BITMAP
D8
D8
00
70
30
30
30
30
78
ENDCHAR

STARTCHAR afii10105
ENCODING 248
SWIDTH 271 0
DWIDTH 4 0
BBX 4 12 -1 -3
BITMAP
30
30
00
70
30
30
30
30
30
30
B0
E0
ENDCHAR

STARTCHAR afii10106
ENCODING 249
SWIDTH 771 0
DWIDTH 10 0
BBX 10 6 0 0
BITMAP
7E00
2C00
2F80
2CC0
ACC0
CF80
ENDCHAR

STARTCHAR afii10107
ENCODING 250
SWIDTH 776 0
DWIDTH 10 0
BBX 10 6 -1 0
BITMAP
F700
6600
7F80
66C0
66C0
F780
ENDCHAR

STARTCHAR afii10108
ENCODING 251
SWIDTH 499 0
DWIDTH 6 0
BBX 7 9 -1 0
BITMAP
E0
78
60
78
6C
6C
6C
6C
EE
ENDCHAR

STARTCHAR afii10109
ENCODING 252
SWIDTH 559 0
DWIDTH 7 0
BBX 7 9 -1 0
BITMAP
08
10
00
E6
6A
70
6C
6C
E6
ENDCHAR

STARTCHAR section
ENCODING 253
SWIDTH 500 0
DWIDTH 7 0
BBX 6 12 0 -3
BITMAP
30
68
60
30
78
CC
CC
78
30
18
58
30
ENDCHAR

STARTCHAR afii10110
ENCODING 254
SWIDTH 500 0
DWIDTH 6 0
BBX 7 12 -1 -3
BITMAP
24
18
00
F6
64
64
34
38
18
10
50
60
ENDCHAR

STARTCHAR afii10193
ENCODING 255
SWIDTH 536 0
DWIDTH 7 0
BBX 8 7 -1 -1
BITMAP
F7
66
66
66
66
FF
08
ENDCHAR
ENDFONT
